<?xml version="1.0" encoding="iso-8859-1"?>
<!-- Generator: Adobe Illustrator 19.0.0, SVG Export Plug-In . SVG Version: 6.00 Build 0)  -->
<svg version="1.1" id="Layer_1" xmlns="http://www.w3.org/2000/svg" xmlns:xlink="http://www.w3.org/1999/xlink" x="0px" y="0px"
	 viewBox="0 0 512 512" style="enable-background:new 0 0 512 512;" xml:space="preserve">
<g>
	<g>
		<g>
			<path d="M255.997,57.803c-62.013,0-112.465,50.451-112.465,112.465s50.451,112.465,112.465,112.465
				s112.465-50.451,112.465-112.465S318.011,57.803,255.997,57.803z M255.997,262.849c-51.05,0-92.581-41.531-92.581-92.581
				s41.531-92.581,92.581-92.581c51.049,0,92.581,41.531,92.581,92.581S307.046,262.849,255.997,262.849z"/>
			<path d="M413.948,137.885c-5.484-5.206-11.156-10.59-12.543-14.863c-1.514-4.669-0.071-12.633,1.325-20.336
				c2.231-12.315,4.76-26.272-2.966-36.888c-7.792-10.712-21.927-12.61-34.399-14.284c-7.696-1.034-15.657-2.101-19.522-4.917
				c-3.767-2.743-7.19-9.908-10.501-16.837c-5.464-11.437-11.658-24.399-24.418-28.549c-12.303-3.992-24.67,2.667-35.586,8.54
				c-7.003,3.768-14.243,7.664-19.341,7.664s-12.339-3.896-19.34-7.664c-10.916-5.874-23.289-12.533-35.591-8.539
				c-12.756,4.147-18.95,17.111-24.414,28.549c-3.312,6.929-6.734,14.093-10.501,16.836c-3.865,2.816-11.824,3.883-19.522,4.917
				c-12.472,1.674-26.607,3.573-34.397,14.282c-7.726,10.618-5.197,24.574-2.966,36.89c1.396,7.702,2.838,15.667,1.325,20.334
				c-1.387,4.274-7.059,9.657-12.541,14.864c-9.261,8.792-19.757,18.756-19.757,32.384c0,13.628,10.496,23.591,19.757,32.384
				c5.484,5.206,11.154,10.589,12.541,14.862c1.515,4.669,0.072,12.633-1.323,20.336c-2.231,12.314-4.761,26.271,2.969,36.892
				c5.27,7.237,13.523,10.457,21.98,12.283v181.479c0,2.908,1.274,5.67,3.485,7.559c2.211,1.889,5.137,2.717,8.012,2.259
				c15.802-2.502,31.654-4.441,47.532-5.857v29.591c0,3.509,1.849,6.758,4.868,8.549c3.016,1.791,6.757,1.86,9.835,0.179
				l49.745-27.133l46.102,26.987c1.55,0.907,3.286,1.362,5.022,1.362c1.706,0,3.412-0.439,4.945-1.317
				c3.089-1.772,4.997-5.062,4.997-8.624v-29.591c15.878,1.417,31.73,3.355,47.532,5.858c0.518,0.082,1.038,0.123,1.555,0.123
				c2.351,0,4.644-0.834,6.456-2.382c2.212-1.889,3.486-4.651,3.486-7.559V287.025c8.453-1.824,16.708-5.045,21.981-12.287
				c7.727-10.618,5.198-24.576,2.968-36.89c-1.396-7.702-2.838-15.667-1.325-20.334c1.387-4.274,7.059-9.657,12.541-14.864
				c9.261-8.792,19.757-18.756,19.757-32.384C433.703,156.642,423.208,146.678,413.948,137.885z M193.24,452.507
				c-13.07,1.135-26.122,2.604-39.145,4.453v-166.85c4.988,0.833,9.452,1.934,12.054,3.829c3.763,2.74,7.185,9.902,10.495,16.827
				c4.195,8.778,8.843,18.495,16.596,24.402V452.507z M298.87,484.72l-35.987-21.068c-3.01-1.761-6.723-1.818-9.783-0.148
				l-39.977,21.806V340.21c8.192-1.182,16.192-5.475,23.533-9.425c7.001-3.768,14.241-7.664,19.34-7.664
				c5.098,0,12.336,3.895,19.336,7.66c7.342,3.951,15.344,8.242,23.537,9.421V484.72z M357.897,456.959
				c-13.021-1.849-26.074-3.318-39.144-4.453v-117.35c7.754-5.904,12.403-15.618,16.598-24.397
				c3.309-6.923,6.73-14.083,10.492-16.822c2.602-1.895,7.066-2.996,12.054-3.829V456.959z M400.257,188.231
				c-7.285,6.916-14.818,14.067-17.764,23.148c-3.058,9.426-1.162,19.893,0.672,30.015c1.521,8.392,3.243,17.904,0.523,21.643
				c-2.698,3.704-12.165,5.054-17.241,5.777c-1.234,0.174-2.477,0.34-3.719,0.507c-10.153,1.359-20.652,2.765-28.59,8.545
				c-7.827,5.7-12.35,15.167-16.726,24.321c-3.647,7.63-7.781,16.278-12.284,18.074c-0.096,0.039-0.2,0.082-0.297,0.124
				c-0.017,0.005-0.034,0.011-0.052,0.017c-4.204,1.371-12.615-3.145-20.026-7.132c-9.169-4.932-18.649-10.034-28.756-10.034
				c-10.109,0-19.592,5.103-28.764,10.039c-7.408,3.987-15.803,8.511-20.026,7.137c-0.016-0.005-0.031-0.01-0.048-0.015
				c-0.096-0.042-0.191-0.082-0.288-0.12c-4.506-1.802-8.641-10.451-12.287-18.084c-4.376-9.156-8.9-18.626-16.729-24.327
				c-7.936-5.78-18.435-7.185-28.59-8.545c-1.243-0.167-2.485-0.333-3.709-0.506c-5.085-0.724-14.552-2.073-17.247-5.775
				c-2.723-3.742-0.999-13.253,0.521-21.645c1.834-10.122,3.729-20.589,0.672-30.017c-2.946-9.078-10.48-16.23-17.764-23.145
				c-6.358-6.036-13.564-12.877-13.564-17.964c0-5.086,7.205-11.927,13.564-17.963c7.285-6.916,14.817-14.067,17.764-23.147
				c3.057-9.426,1.161-19.893-0.674-30.015c-1.521-8.392-3.243-17.904-0.519-21.647c2.787-3.833,12.444-5.129,20.964-6.272
				c10.15-1.363,20.648-2.771,28.582-8.551c7.831-5.704,12.357-15.177,16.734-24.337c3.741-7.829,7.981-16.702,12.617-18.209
				c4.22-1.371,12.617,3.149,20.026,7.137c9.171,4.935,18.654,10.039,28.764,10.039s19.592-5.103,28.764-10.039
				c7.411-3.988,15.808-8.504,20.021-7.138c4.641,1.509,8.88,10.382,12.621,18.211c4.377,9.161,8.903,18.634,16.735,24.338
				c7.936,5.78,18.432,7.189,28.582,8.551c8.52,1.143,18.177,2.439,20.966,6.274c2.723,3.742,1,13.255-0.521,21.645
				c-1.834,10.122-3.731,20.588-0.672,30.016c2.946,9.079,10.48,16.231,17.764,23.147c6.358,6.036,13.563,12.876,13.563,17.963
				C413.819,175.359,406.614,182.195,400.257,188.231z"/>
			<path d="M280.906,142.036l-15.936-33.378c-1.652-3.457-5.141-5.658-8.972-5.658s-7.321,2.201-8.971,5.658l-15.938,33.378
				l-36.668,4.843c-3.798,0.502-6.969,3.14-8.153,6.784c-1.184,3.644-0.169,7.643,2.608,10.281l26.819,25.472l-6.725,36.371
				c-0.697,3.767,0.833,7.599,3.933,9.851c1.734,1.259,3.784,1.899,5.844,1.899c1.624,0,3.255-0.398,4.738-1.203l32.513-17.635
				l32.512,17.635c3.369,1.827,7.485,1.555,10.584-0.696c3.099-2.252,4.629-6.084,3.932-9.851l-6.724-36.371l26.819-25.472
				c2.777-2.638,3.793-6.637,2.61-10.281c-1.183-3.644-4.356-6.282-8.153-6.784L280.906,142.036z M278.699,178.712
				c-2.439,2.316-3.542,5.709-2.929,9.016l3.918,21.201l-18.95-10.278c-2.958-1.603-6.524-1.604-9.481,0l-18.951,10.278
				l3.919-21.201c0.611-3.308-0.491-6.701-2.929-9.016l-15.632-14.847l21.373-2.823c3.335-0.44,6.22-2.538,7.67-5.572l9.29-19.456
				l9.289,19.456c1.45,3.035,4.336,5.131,7.67,5.572l21.375,2.823L278.699,178.712z"/>
		</g>
	</g>
</g>
<g>
</g>
<g>
</g>
<g>
</g>
<g>
</g>
<g>
</g>
<g>
</g>
<g>
</g>
<g>
</g>
<g>
</g>
<g>
</g>
<g>
</g>
<g>
</g>
<g>
</g>
<g>
</g>
<g>
</g>
</svg>
